<svg xmlns="http://www.w3.org/2000/svg" version="1.1" xmlns:xlink="http://www.w3.org/1999/xlink" xmlns:svgjs="http://svgjs.dev/svgjs" width="1440" height="560" preserveAspectRatio="none" viewBox="0 0 1440 560"><g mask="url(&quot;#SvgjsMask1062&quot;)" fill="none"><rect width="1440" height="560" x="0" y="0" fill="rgba(13, 18, 36, 1)"></rect><path d="M0,311.26C84.958,328.061,165.269,415.176,244.822,380.95C321.351,348.025,334.82,242.007,350.947,160.272C364.695,90.595,334.685,23.468,329.328,-47.35C323.465,-124.858,354.374,-206.848,317.98,-275.531C278.736,-349.592,209.862,-423.018,126.369,-430.374C42.274,-437.783,-10.876,-336.652,-91.497,-311.609C-170.104,-287.192,-278.314,-350.075,-332.267,-287.911C-386.206,-225.763,-319.081,-128.512,-321.789,-46.266C-324.098,23.871,-372.305,93.013,-346.962,158.452C-321.36,224.558,-254.485,266.463,-189.608,295.036C-130.355,321.132,-63.515,298.699,0,311.26" fill="#0a0e1d"></path><path d="M1440 1046.968C1561.833 1069.245 1691.076 1179.644 1797.404 1116.1309999999999 1902.741 1053.21 1855.862 884.683 1902.0140000000001 770.995 1945.367 664.201 2071.378 585.581 2059.312 470.956 2047.262 356.477 1910.475 304.053 1843.0430000000001 210.76100000000002 1766.675 105.10500000000002 1757.8229999999999-62.44500000000005 1637.5-112.62199999999996 1518.238-162.35699999999997 1389.617-69.98900000000003 1266.907-29.5 1148.488 9.573999999999955 1011.6279999999999 23.863000000000056 932.2919999999999 120.06900000000002 853.403 215.73399999999998 869.289 352.676 850.655 475.265 831.851 598.973 759.283 734.025 822.561 841.975 886.26 950.642 1038.216 959.482 1157.761 999.172 1250.192 1029.8600000000001 1344.196 1029.45 1440 1046.968" fill="#10162b"></path></g><defs><mask id="SvgjsMask1062"><rect width="1440" height="560" fill="#ffffff"></rect></mask></defs></svg>